<svg width="200" height="200" fill="none" xmlns="http://www.w3.org/2000/svg"><path d="M61.481 18.36 20.27 55.688c-27.027 24.481-27.027 64.173 0 88.653l41.211 37.328C74.973 193.889 92.695 200 110.418 200c17.722 0 35.444-6.111 48.936-18.332l40.247-36.454a1.156 1.156 0 0 0 0-1.747l-13.524-12.25a1.467 1.467 0 0 0-1.929 0l-40.247 36.454c-18.463 16.722-48.504 16.722-66.969 0l-41.21-37.327c-18.462-16.724-18.462-43.935 0-60.66l41.21-37.327c18.465-16.722 48.506-16.722 66.969 0l40.247 36.454a1.467 1.467 0 0 0 1.929 0l13.524-12.25a1.156 1.156 0 0 0 0-1.746L159.354 18.36C145.841 6.12 128.129 0 110.418 0 92.705 0 74.994 6.12 61.481 18.36" fill="url(#a)"/><path d="M87.243 51.01 57.298 78.131a1.156 1.156 0 0 0 0 1.746l13.525 12.25a1.466 1.466 0 0 0 1.928 0l29.944-27.123c2.065-1.868 4.81-2.897 7.728-2.897s5.663 1.03 7.728 2.897l30.907 27.997c4.26 3.86 4.26 10.139 0 14l-30.907 27.996c-2.065 1.867-4.81 2.898-7.728 2.898s-5.663-1.031-7.728-2.898l-29.944-27.122a1.464 1.464 0 0 0-1.928 0l-13.525 12.248a1.156 1.156 0 0 0 0 1.747l29.945 27.123c6.391 5.79 14.785 8.683 23.18 8.683s16.789-2.893 23.18-8.683l30.907-27.996c12.785-11.578 12.785-30.416 0-41.993L133.603 51.01c-6.391-5.79-14.786-8.685-23.18-8.685s-16.79 2.895-23.18 8.685" fill="url(#b)"/><defs><linearGradient id="a" x1="0" y1="100" x2="200" y2="100" gradientUnits="userSpaceOnUse"><stop stop-color="#4A87FF"/><stop offset="1" stop-color="#CF41FD"/></linearGradient><linearGradient id="b" x1="56.899" y1="100.001" x2="174.099" y2="100.001" gradientUnits="userSpaceOnUse"><stop stop-color="#4A87FF"/><stop offset="1" stop-color="#CF41FD"/></linearGradient></defs></svg>